ffmpeg started on 2025-07-19 at 14:37:21
Report written to "D:\Convert\FFMetrics\reports\ssim_report-6.txt"
Log level: 32
Command line:
ffmpeg -hide_banner -nostdin -i "G:\\\xc0\xed\xe8\xec\xe5\\\xce\xed\xe3\xee\xe8\xed\xe3\xe8\\!_07_\xcb\xe5\xf2\xee_2017\\\xd1\xe5\xec\xfc - \xe2\xe5\xf0\xed\xee, \xf2\xf0\xe8 - \xed\xe5\xe2\xe5\xf0\xed\xee\\[AniDub]_Nana_Maru_San_Batsu_[12]_[720p_x264_Aac]_[MVO]_HEVC.mkv" -i "G:\\\xc0\xed\xe8\xec\xe5\\\xce\xed\xe3\xee\xe8\xed\xe3\xe8\\!_07_\xcb\xe5\xf2\xee_2017\\\xd1\xe5\xec\xfc - \xe2\xe5\xf0\xed\xee, \xf2\xf0\xe8 - \xed\xe5\xe2\xe5\xf0\xed\xee\\[AniDub]_Nana_Maru_San_Batsu_[12]_[720p_x264_Aac]_[MVO].mp4" -lavfi "[0:v]settb=AVTB,setpts=PTS-STARTPTS,format=pix_fmts=yuv420p10,fps=24000/1001,scale=1280:720:flags=bicubic[main];[1:v]settb=AVTB,setpts=PTS-STARTPTS,format=pix_fmts=yuv420p,fps=24000/1001,scale=1280:720:flags=bicubic[ref];[main][ref]ssim=eof_action=endall:stats_file='D\\:/Convert/FFMetrics/logs/ssim_logfile-6.txt'" -f null -
Input #0, matroska,webm, from 'G:\Аниме\Онгоинги\!_07_Лето_2017\Семь - верно, три - неверно\[AniDub]_Nana_Maru_San_Batsu_[12]_[720p_x264_Aac]_[MVO]_HEVC.mkv':
  Metadata:
    COMPATIBLE_BRANDS: isomavc1
    MAJOR_BRAND     : isom
    MINOR_VERSION   : 1
    ENCODER         : Lavf61.7.100
  Duration: 00:23:04.19, start: -0.021000, bitrate: 614 kb/s
  Stream #0:0: Video: hevc (Main 10), yuv420p10le(tv, bt709, progressive), 1280x720 [SAR 1:1 DAR 16:9], 23.98 fps, 23.98 tbr, 1k tbn (default)
      Metadata:
        HANDLER_NAME    : GPAC ISO Video Handler
        VENDOR_ID       : [0][0][0][0]
        ENCODER         : Lavc61.19.100 libx265
        BPS             : 417559
        DURATION        : 00:23:03.048708333
        NUMBER_OF_FRAMES: 33160
        NUMBER_OF_BYTES : 72188040
        _STATISTICS_WRITING_APP: mkvpropedit v66.0.0 ('Josie') 64-bit
        _STATISTICS_WRITING_DATE_UTC: 2025-07-19 10:45:07
        _STATISTICS_TAGS: BPS DURATION NUMBER_OF_FRAMES NUMBER_OF_BYTES
  Stream #0:1(eng): Audio: aac (LC), 48000 Hz, stereo, fltp (default)
      Metadata:
        HANDLER_NAME    : GPAC ISO Audio Handler
        VENDOR_ID       : [0][0][0][0]
        ENCODER         : Lavc61.19.100 aac
        BPS             : 193297
        DURATION        : 00:23:04.170000000
        NUMBER_OF_FRAMES: 64884
        NUMBER_OF_BYTES : 33444519
        _STATISTICS_WRITING_APP: mkvpropedit v66.0.0 ('Josie') 64-bit
        _STATISTICS_WRITING_DATE_UTC: 2025-07-19 10:45:07
        _STATISTICS_TAGS: BPS DURATION NUMBER_OF_FRAMES NUMBER_OF_BYTES
Input #1, mov,mp4,m4a,3gp,3g2,mj2, from 'G:\Аниме\Онгоинги\!_07_Лето_2017\Семь - верно, три - неверно\[AniDub]_Nana_Maru_San_Batsu_[12]_[720p_x264_Aac]_[MVO].mp4':
  Metadata:
    major_brand     : isom
    minor_version   : 1
    compatible_brands: isomavc1
    creation_time   : 2018-05-16T21:00:06.000000Z
  Duration: 00:23:04.17, start: 0.000000, bitrate: 1965 kb/s
  Stream #1:0[0x1](und): Video: h264 (High) (avc1 / 0x31637661), yuv420p(progressive), 1280x720 [SAR 1:1 DAR 16:9], 1770 kb/s, 23.98 fps, 23.98 tbr, 24k tbn (default)
      Metadata:
        creation_time   : 2018-05-16T21:00:06.000000Z
        handler_name    : GPAC ISO Video Handler
        vendor_id       : [0][0][0][0]
  Stream #1:1[0x2](eng): Audio: aac (LC) (mp4a / 0x6134706D), 48000 Hz, stereo, fltp, 192 kb/s (default)
      Metadata:
        creation_time   : 2018-05-16T21:00:07.000000Z
        handler_name    : GPAC ISO Audio Handler
        vendor_id       : [0][0][0][0]
Stream mapping:
  Stream #0:0 (hevc) -> settb:default
  Stream #1:0 (h264) -> settb:default
  ssim:default -> Stream #0:0 (wrapped_avframe)
  Stream #0:1 -> #0:1 (aac (native) -> pcm_s16le (native))
[swscaler @ 000001fd71b8fb00] No accelerated colorspace conversion found from yuv420p to bgr48le.
[swscaler @ 000001fd71ce4580] No accelerated colorspace conversion found from yuv420p to bgr48le.
[swscaler @ 000001fd71eccbc0] No accelerated colorspace conversion found from yuv420p to bgr48le.
[swscaler @ 000001fd71fa2400] No accelerated colorspace conversion found from yuv420p to bgr48le.
[swscaler @ 000001fd7207d000] No accelerated colorspace conversion found from yuv420p to bgr48le.
[swscaler @ 000001fd7209a140] No accelerated colorspace conversion found from yuv420p to bgr48le.
[swscaler @ 000001fd7213e040] No accelerated colorspace conversion found from yuv420p to bgr48le.
[swscaler @ 000001fd721ca040] No accelerated colorspace conversion found from yuv420p to bgr48le.
[swscaler @ 000001fd72231bc0] No accelerated colorspace conversion found from yuv420p to bgr48le.
[swscaler @ 000001fd7229e040] No accelerated colorspace conversion found from yuv420p to bgr48le.
[swscaler @ 000001fd722fa040] No accelerated colorspace conversion found from yuv420p to bgr48le.
[swscaler @ 000001fd75e17040] No accelerated colorspace conversion found from yuv420p to bgr48le.
[swscaler @ 000001fd75e7d040] No accelerated colorspace conversion found from yuv420p to bgr48le.
[swscaler @ 000001fd75ef2040] No accelerated colorspace conversion found from yuv420p to bgr48le.
[swscaler @ 000001fd75f76040] No accelerated colorspace conversion found from yuv420p to bgr48le.
[swscaler @ 000001fd75fa2c80] No accelerated colorspace conversion found from yuv420p to bgr48le.
Output #0, null, to 'pipe:':
  Metadata:
    COMPATIBLE_BRANDS: isomavc1
    MAJOR_BRAND     : isom
    MINOR_VERSION   : 1
    encoder         : Lavf61.7.100
  Stream #0:0: Video: wrapped_avframe, yuv420p10le(tv, bt709, progressive), 1280x720 [SAR 1:1 DAR 16:9], q=2-31, 200 kb/s, 23.98 fps, 23.98 tbn
      Metadata:
        encoder         : Lavc61.19.100 wrapped_avframe
  Stream #0:1(eng): Audio: pcm_s16le, 48000 Hz, stereo, s16, 1536 kb/s (default)
      Metadata:
        HANDLER_NAME    : GPAC ISO Audio Handler
        VENDOR_ID       : [0][0][0][0]
        _STATISTICS_TAGS: BPS DURATION NUMBER_OF_FRAMES NUMBER_OF_BYTES
        BPS             : 193297
        DURATION        : 00:23:04.170000000
        NUMBER_OF_FRAMES: 64884
        NUMBER_OF_BYTES : 33444519
        _STATISTICS_WRITING_APP: mkvpropedit v66.0.0 ('Josie') 64-bit
        _STATISTICS_WRITING_DATE_UTC: 2025-07-19 10:45:07
        encoder         : Lavc61.19.100 pcm_s16le
frame=   77 fps=0.0 q=-0.0 size=N/A time=00:00:03.21 bitrate=N/A speed=6.36x    frame=  170 fps=165 q=-0.0 size=N/A time=00:00:07.09 bitrate=N/A speed= 6.9x    frame=  275 fps=179 q=-0.0 size=N/A time=00:00:11.46 bitrate=N/A speed=7.48x    frame=  376 fps=183 q=-0.0 size=N/A time=00:00:15.68 bitrate=N/A speed=7.62x    frame=  475 fps=185 q=-0.0 size=N/A time=00:00:19.81 bitrate=N/A speed=7.72x    frame=  572 fps=185 q=-0.0 size=N/A time=00:00:23.85 bitrate=N/A speed=7.73x    frame=  669 fps=185 q=-0.0 size=N/A time=00:00:27.90 bitrate=N/A speed=7.74x    frame=  762 fps=185 q=-0.0 size=N/A time=00:00:31.78 bitrate=N/A speed=7.73x    frame=  850 fps=183 q=-0.0 size=N/A time=00:00:35.45 bitrate=N/A speed=7.64x    frame=  944 fps=183 q=-0.0 size=N/A time=00:00:39.37 bitrate=N/A speed=7.64x    frame= 1044 fps=184 q=-0.0 size=N/A time=00:00:43.54 bitrate=N/A speed=7.67x    frame= 1148 fps=186 q=-0.0 size=N/A time=00:00:47.88 bitrate=N/A speed=7.75x    frame= 1248 fps=186 q=-0.0 size=N/A time=00:00:52.05 bitrate=N/A speed=7.77x    frame= 1346 fps=187 q=-0.0 size=N/A time=00:00:56.13 bitrate=N/A speed=7.79x    frame= 1437 fps=186 q=-0.0 size=N/A time=00:00:59.93 bitrate=N/A speed=7.75x    frame= 1541 fps=187 q=-0.0 size=N/A time=00:01:04.27 bitrate=N/A speed= 7.8x    frame= 1641 fps=187 q=-0.0 size=N/A time=00:01:08.44 bitrate=N/A speed=7.81x    frame= 1740 fps=188 q=-0.0 size=N/A time=00:01:12.57 bitrate=N/A speed=7.83x    frame= 1837 fps=188 q=-0.0 size=N/A time=00:01:16.61 bitrate=N/A speed=7.82x    frame= 1933 fps=188 q=-0.0 size=N/A time=00:01:20.62 bitrate=N/A speed=7.83x    frame= 2031 fps=188 q=-0.0 size=N/A time=00:01:24.70 bitrate=N/A speed=7.83x    frame= 2131 fps=188 q=-0.0 size=N/A time=00:01:28.88 bitrate=N/A speed=7.84x    frame= 2236 fps=189 q=-0.0 size=N/A time=00:01:33.25 bitrate=N/A speed=7.87x    frame= 2324 fps=188 q=-0.0 size=N/A time=00:01:36.93 bitrate=N/A speed=7.84x    frame= 2422 fps=188 q=-0.0 size=N/A time=00:01:41.01 bitrate=N/A speed=7.84x    frame= 2511 fps=187 q=-0.0 size=N/A time=00:01:44.72 bitrate=N/A speed=7.82x    frame= 2605 fps=187 q=-0.0 size=N/A time=00:01:48.65 bitrate=N/A speed=7.81x    frame= 2703 fps=187 q=-0.0 size=N/A time=00:01:52.73 bitrate=N/A speed=7.81x    frame= 2798 fps=187 q=-0.0 size=N/A time=00:01:56.69 bitrate=N/A speed=7.81x    frame= 2898 fps=187 q=-0.0 size=N/A time=00:02:00.87 bitrate=N/A speed=7.82x    frame= 2995 fps=187 q=-0.0 size=N/A time=00:02:04.91 bitrate=N/A speed=7.82x    frame= 3097 fps=188 q=-0.0 size=N/A time=00:02:09.17 bitrate=N/A speed=7.83x    frame= 3193 fps=188 q=-0.0 size=N/A time=00:02:13.17 bitrate=N/A speed=7.83x    frame= 3294 fps=188 q=-0.0 size=N/A time=00:02:17.38 bitrate=N/A speed=7.84x    frame= 3388 fps=188 q=-0.0 size=N/A time=00:02:21.30 bitrate=N/A speed=7.83x    frame= 3493 fps=188 q=-0.0 size=N/A time=00:02:25.68 bitrate=N/A speed=7.85x    frame= 3590 fps=188 q=-0.0 size=N/A time=00:02:29.73 bitrate=N/A speed=7.85x    frame= 3691 fps=188 q=-0.0 size=N/A time=00:02:33.94 bitrate=N/A speed=7.85x    frame= 3790 fps=188 q=-0.0 size=N/A time=00:02:38.07 bitrate=N/A speed=7.85x    frame= 3883 fps=188 q=-0.0 size=N/A time=00:02:41.95 bitrate=N/A speed=7.84x    frame= 3991 fps=188 q=-0.0 size=N/A time=00:02:46.45 bitrate=N/A speed=7.86x    frame= 4085 fps=188 q=-0.0 size=N/A time=00:02:50.37 bitrate=N/A speed=7.86x    frame= 4185 fps=188 q=-0.0 size=N/A time=00:02:54.54 bitrate=N/A speed=7.86x    frame= 4277 fps=188 q=-0.0 size=N/A time=00:02:58.38 bitrate=N/A speed=7.86x    frame= 4375 fps=188 q=-0.0 size=N/A time=00:03:02.47 bitrate=N/A speed=7.85x    frame= 4464 fps=188 q=-0.0 size=N/A time=00:03:06.18 bitrate=N/A speed=7.84x    frame= 4562 fps=188 q=-0.0 size=N/A time=00:03:10.27 bitrate=N/A speed=7.84x    frame= 4666 fps=188 q=-0.0 size=N/A time=00:03:14.61 bitrate=N/A speed=7.86x    frame= 4766 fps=188 q=-0.0 size=N/A time=00:03:18.78 bitrate=N/A speed=7.86x    frame= 4858 fps=188 q=-0.0 size=N/A time=00:03:22.61 bitrate=N/A speed=7.85x    frame= 4960 fps=188 q=-0.0 size=N/A time=00:03:26.87 bitrate=N/A speed=7.86x    frame= 5068 fps=189 q=-0.0 size=N/A time=00:03:31.37 bitrate=N/A speed=7.88x    frame= 5168 fps=189 q=-0.0 size=N/A time=00:03:35.54 bitrate=N/A speed=7.88x    frame= 5271 fps=189 q=-0.0 size=N/A time=00:03:39.84 bitrate=N/A speed=7.89x    frame= 5369 fps=189 q=-0.0 size=N/A time=00:03:43.93 bitrate=N/A speed=7.89x    frame= 5468 fps=189 q=-0.0 size=N/A time=00:03:48.06 bitrate=N/A speed=7.89x    frame= 5567 fps=189 q=-0.0 size=N/A time=00:03:52.19 bitrate=N/A speed=7.89x    frame= 5664 fps=189 q=-0.0 size=N/A time=00:03:56.23 bitrate=N/A speed=7.89x    frame= 5765 fps=189 q=-0.0 size=N/A time=00:04:00.44 bitrate=N/A speed= 7.9x    frame= 5854 fps=189 q=-0.0 size=N/A time=00:04:04.16 bitrate=N/A speed=7.89x    frame= 5956 fps=189 q=-0.0 size=N/A time=00:04:08.41 bitrate=N/A speed=7.89x    frame= 6056 fps=189 q=-0.0 size=N/A time=00:04:12.58 bitrate=N/A speed=7.89x    frame= 6152 fps=189 q=-0.0 size=N/A time=00:04:16.58 bitrate=N/A speed=7.89x    frame= 6235 fps=189 q=-0.0 size=N/A time=00:04:20.05 bitrate=N/A speed=7.88x    frame= 6342 fps=189 q=-0.0 size=N/A time=00:04:24.51 bitrate=N/A speed=7.89x    frame= 6429 fps=189 q=-0.0 size=N/A time=00:04:28.14 bitrate=N/A speed=7.87x    frame= 6535 fps=189 q=-0.0 size=N/A time=00:04:32.56 bitrate=N/A speed=7.88x    frame= 6625 fps=189 q=-0.0 size=N/A time=00:04:36.31 bitrate=N/A speed=7.88x    frame= 6732 fps=189 q=-0.0 size=N/A time=00:04:40.78 bitrate=N/A speed=7.89x    frame= 6830 fps=189 q=-0.0 size=N/A time=00:04:44.86 bitrate=N/A speed=7.89x    frame= 6927 fps=189 q=-0.0 size=N/A time=00:04:48.91 bitrate=N/A speed=7.89x    frame= 7032 fps=189 q=-0.0 size=N/A time=00:04:53.29 bitrate=N/A speed=7.89x    frame= 7131 fps=189 q=-0.0 size=N/A time=00:04:57.42 bitrate=N/A speed= 7.9x    frame= 7233 fps=189 q=-0.0 size=N/A time=00:05:01.67 bitrate=N/A speed= 7.9x    frame= 7326 fps=189 q=-0.0 size=N/A time=00:05:05.55 bitrate=N/A speed= 7.9x    frame= 7423 fps=189 q=-0.0 size=N/A time=00:05:09.60 bitrate=N/A speed= 7.9x    frame= 7531 fps=190 q=-0.0 size=N/A time=00:05:14.10 bitrate=N/A speed= 7.9x    frame= 7627 fps=190 q=-0.0 size=N/A time=00:05:18.10 bitrate=N/A speed= 7.9x    frame= 7723 fps=189 q=-0.0 size=N/A time=00:05:22.11 bitrate=N/A speed= 7.9x    frame= 7815 fps=189 q=-0.0 size=N/A time=00:05:25.95 bitrate=N/A speed= 7.9x    frame= 7906 fps=189 q=-0.0 size=N/A time=00:05:29.74 bitrate=N/A speed=7.89x    frame= 8004 fps=189 q=-0.0 size=N/A time=00:05:33.83 bitrate=N/A speed=7.89x    frame= 8109 fps=189 q=-0.0 size=N/A time=00:05:38.21 bitrate=N/A speed= 7.9x    frame= 8197 fps=189 q=-0.0 size=N/A time=00:05:41.88 bitrate=N/A speed=7.89x    frame= 8303 fps=189 q=-0.0 size=N/A time=00:05:46.30 bitrate=N/A speed= 7.9x    frame= 8398 fps=189 q=-0.0 size=N/A time=00:05:50.26 bitrate=N/A speed= 7.9x    frame= 8501 fps=189 q=-0.0 size=N/A time=00:05:54.56 bitrate=N/A speed= 7.9x    frame= 8597 fps=189 q=-0.0 size=N/A time=00:05:58.56 bitrate=N/A speed= 7.9x    frame= 8684 fps=189 q=-0.0 size=N/A time=00:06:02.19 bitrate=N/A speed=7.89x    frame= 8795 fps=189 q=-0.0 size=N/A time=00:06:06.82 bitrate=N/A speed= 7.9x    frame= 8897 fps=190 q=-0.0 size=N/A time=00:06:11.07 bitrate=N/A speed= 7.9x    frame= 8996 fps=190 q=-0.0 size=N/A time=00:06:15.20 bitrate=N/A speed= 7.9x    frame= 9088 fps=189 q=-0.0 size=N/A time=00:06:19.04 bitrate=N/A speed= 7.9x    frame= 9183 fps=189 q=-0.0 size=N/A time=00:06:23.00 bitrate=N/A speed= 7.9x    frame= 9275 fps=189 q=-0.0 size=N/A time=00:06:26.84 bitrate=N/A speed=7.89x    frame= 9373 fps=189 q=-0.0 size=N/A time=00:06:30.93 bitrate=N/A speed=7.89x    frame= 9472 fps=189 q=-0.0 size=N/A time=00:06:35.06 bitrate=N/A speed=7.89x    frame= 9567 fps=189 q=-0.0 size=N/A time=00:06:39.02 bitrate=N/A speed=7.89x    frame= 9663 fps=189 q=-0.0 size=N/A time=00:06:43.02 bitrate=N/A speed=7.89x    frame= 9756 fps=189 q=-0.0 size=N/A time=00:06:46.90 bitrate=N/A speed=7.89x    frame= 9861 fps=189 q=-0.0 size=N/A time=00:06:51.28 bitrate=N/A speed=7.89x    frame= 9954 fps=189 q=-0.0 size=N/A time=00:06:55.16 bitrate=N/A speed=7.89x    frame=10055 fps=189 q=-0.0 size=N/A time=00:06:59.37 bitrate=N/A speed=7.89x    frame=10162 fps=189 q=-0.0 size=N/A time=00:07:03.84 bitrate=N/A speed= 7.9x    frame=10262 fps=189 q=-0.0 size=N/A time=00:07:08.01 bitrate=N/A speed= 7.9x    frame=10357 fps=189 q=-0.0 size=N/A time=00:07:11.97 bitrate=N/A speed= 7.9x    frame=10450 fps=189 q=-0.0 size=N/A time=00:07:15.85 bitrate=N/A speed=7.89x    frame=10550 fps=189 q=-0.0 size=N/A time=00:07:20.02 bitrate=N/A speed=7.89x    frame=10640 fps=189 q=-0.0 size=N/A time=00:07:23.77 bitrate=N/A speed=7.89x    frame=10742 fps=189 q=-0.0 size=N/A time=00:07:28.03 bitrate=N/A speed=7.89x    frame=10837 fps=189 q=-0.0 size=N/A time=00:07:31.99 bitrate=N/A speed=7.89x    frame=10938 fps=189 q=-0.0 size=N/A time=00:07:36.20 bitrate=N/A speed=7.89x    frame=11033 fps=189 q=-0.0 size=N/A time=00:07:40.16 bitrate=N/A speed=7.89x    frame=11138 fps=189 q=-0.0 size=N/A time=00:07:44.54 bitrate=N/A speed= 7.9x    frame=11236 fps=189 q=-0.0 size=N/A time=00:07:48.63 bitrate=N/A speed= 7.9x    frame=11338 fps=189 q=-0.0 size=N/A time=00:07:52.88 bitrate=N/A speed= 7.9x    frame=11438 fps=189 q=-0.0 size=N/A time=00:07:57.05 bitrate=N/A speed= 7.9x    frame=11529 fps=189 q=-0.0 size=N/A time=00:08:00.85 bitrate=N/A speed= 7.9x    frame=11626 fps=189 q=-0.0 size=N/A time=00:08:04.90 bitrate=N/A speed=7.89x    frame=11735 fps=189 q=-0.0 size=N/A time=00:08:09.44 bitrate=N/A speed= 7.9x    frame=11835 fps=189 q=-0.0 size=N/A time=00:08:13.61 bitrate=N/A speed= 7.9x    frame=11927 fps=189 q=-0.0 size=N/A time=00:08:17.45 bitrate=N/A speed= 7.9x    frame=12019 fps=189 q=-0.0 size=N/A time=00:08:21.29 bitrate=N/A speed= 7.9x    frame=12110 fps=189 q=-0.0 size=N/A time=00:08:25.08 bitrate=N/A speed=7.89x    frame=12213 fps=189 q=-0.0 size=N/A time=00:08:29.38 bitrate=N/A speed= 7.9x    frame=12311 fps=189 q=-0.0 size=N/A time=00:08:33.47 bitrate=N/A speed= 7.9x    frame=12402 fps=189 q=-0.0 size=N/A time=00:08:37.26 bitrate=N/A speed=7.89x    frame=12505 fps=189 q=-0.0 size=N/A time=00:08:41.56 bitrate=N/A speed= 7.9x    frame=12605 fps=189 q=-0.0 size=N/A time=00:08:45.73 bitrate=N/A speed= 7.9x    frame=12695 fps=189 q=-0.0 size=N/A time=00:08:49.48 bitrate=N/A speed=7.89x    frame=12796 fps=189 q=-0.0 size=N/A time=00:08:53.69 bitrate=N/A speed=7.89x    frame=12900 fps=189 q=-0.0 size=N/A time=00:08:58.03 bitrate=N/A speed= 7.9x    frame=12997 fps=189 q=-0.0 size=N/A time=00:09:02.08 bitrate=N/A speed= 7.9x    frame=13094 fps=189 q=-0.0 size=N/A time=00:09:06.12 bitrate=N/A speed= 7.9x    frame=13195 fps=189 q=-0.0 size=N/A time=00:09:10.34 bitrate=N/A speed= 7.9x    frame=13293 fps=189 q=-0.0 size=N/A time=00:09:14.42 bitrate=N/A speed= 7.9x    frame=13394 fps=189 q=-0.0 size=N/A time=00:09:18.64 bitrate=N/A speed= 7.9x    frame=13480 fps=189 q=-0.0 size=N/A time=00:09:22.22 bitrate=N/A speed= 7.9x    frame=13584 fps=189 q=-0.0 size=N/A time=00:09:26.56 bitrate=N/A speed= 7.9x    frame=13678 fps=189 q=-0.0 size=N/A time=00:09:30.48 bitrate=N/A speed= 7.9x    frame=13771 fps=189 q=-0.0 size=N/A time=00:09:34.36 bitrate=N/A speed=7.89x    frame=13859 fps=189 q=-0.0 size=N/A time=00:09:38.03 bitrate=N/A speed=7.89x    frame=13959 fps=189 q=-0.0 size=N/A time=00:09:42.20 bitrate=N/A speed=7.89x    frame=14055 fps=189 q=-0.0 size=N/A time=00:09:46.21 bitrate=N/A speed=7.89x    frame=14152 fps=189 q=-0.0 size=N/A time=00:09:50.25 bitrate=N/A speed=7.89x    frame=14256 fps=189 q=-0.0 size=N/A time=00:09:54.59 bitrate=N/A speed=7.89x    frame=14352 fps=189 q=-0.0 size=N/A time=00:09:58.59 bitrate=N/A speed=7.89x    frame=14453 fps=189 q=-0.0 size=N/A time=00:10:02.81 bitrate=N/A speed=7.89x    frame=14553 fps=189 q=-0.0 size=N/A time=00:10:06.98 bitrate=N/A speed=7.89x    frame=14652 fps=189 q=-0.0 size=N/A time=00:10:11.11 bitrate=N/A speed=7.89x    frame=14749 fps=189 q=-0.0 size=N/A time=00:10:15.15 bitrate=N/A speed=7.89x    frame=14856 fps=189 q=-0.0 size=N/A time=00:10:19.61 bitrate=N/A speed= 7.9x    frame=14953 fps=189 q=-0.0 size=N/A time=00:10:23.66 bitrate=N/A speed= 7.9x    frame=15052 fps=189 q=-0.0 size=N/A time=00:10:27.79 bitrate=N/A speed= 7.9x    frame=15145 fps=189 q=-0.0 size=N/A time=00:10:31.67 bitrate=N/A speed= 7.9x    frame=15248 fps=189 q=-0.0 size=N/A time=00:10:35.96 bitrate=N/A speed= 7.9x    frame=15349 fps=189 q=-0.0 size=N/A time=00:10:40.18 bitrate=N/A speed= 7.9x    frame=15437 fps=189 q=-0.0 size=N/A time=00:10:43.85 bitrate=N/A speed= 7.9x    frame=15536 fps=189 q=-0.0 size=N/A time=00:10:47.98 bitrate=N/A speed= 7.9x    frame=15633 fps=189 q=-0.0 size=N/A time=00:10:52.02 bitrate=N/A speed= 7.9x    frame=15730 fps=189 q=-0.0 size=N/A time=00:10:56.07 bitrate=N/A speed= 7.9x    frame=15832 fps=189 q=-0.0 size=N/A time=00:11:00.32 bitrate=N/A speed= 7.9x    frame=15924 fps=189 q=-0.0 size=N/A time=00:11:04.16 bitrate=N/A speed= 7.9x    frame=16016 fps=189 q=-0.0 size=N/A time=00:11:08.00 bitrate=N/A speed=7.89x    frame=16119 fps=189 q=-0.0 size=N/A time=00:11:12.29 bitrate=N/A speed= 7.9x    frame=16232 fps=189 q=-0.0 size=N/A time=00:11:17.00 bitrate=N/A speed= 7.9x    frame=16330 fps=189 q=-0.0 size=N/A time=00:11:21.09 bitrate=N/A speed= 7.9x    frame=16428 fps=189 q=-0.0 size=N/A time=00:11:25.18 bitrate=N/A speed= 7.9x    frame=16517 fps=189 q=-0.0 size=N/A time=00:11:28.89 bitrate=N/A speed= 7.9x    frame=16618 fps=189 q=-0.0 size=N/A time=00:11:33.10 bitrate=N/A speed= 7.9x    frame=16720 fps=189 q=-0.0 size=N/A time=00:11:37.36 bitrate=N/A speed= 7.9x    frame=16815 fps=189 q=-0.0 size=N/A time=00:11:41.32 bitrate=N/A speed= 7.9x    frame=16916 fps=189 q=-0.0 size=N/A time=00:11:45.53 bitrate=N/A speed= 7.9x    frame=17005 fps=189 q=-0.0 size=N/A time=00:11:49.25 bitrate=N/A speed= 7.9x    frame=17106 fps=189 q=-0.0 size=N/A time=00:11:53.46 bitrate=N/A speed= 7.9x    frame=17198 fps=189 q=-0.0 size=N/A time=00:11:57.29 bitrate=N/A speed= 7.9x    frame=17293 fps=189 q=-0.0 size=N/A time=00:12:01.26 bitrate=N/A speed= 7.9x    frame=17390 fps=189 q=-0.0 size=N/A time=00:12:05.30 bitrate=N/A speed= 7.9x    frame=17483 fps=189 q=-0.0 size=N/A time=00:12:09.18 bitrate=N/A speed=7.89x    frame=17588 fps=189 q=-0.0 size=N/A time=00:12:13.56 bitrate=N/A speed= 7.9x    frame=17691 fps=189 q=-0.0 size=N/A time=00:12:17.86 bitrate=N/A speed= 7.9x    frame=17776 fps=189 q=-0.0 size=N/A time=00:12:21.40 bitrate=N/A speed=7.89x    frame=17890 fps=189 q=-0.0 size=N/A time=00:12:26.16 bitrate=N/A speed= 7.9x    frame=17989 fps=189 q=-0.0 size=N/A time=00:12:30.29 bitrate=N/A speed= 7.9x    frame=18082 fps=189 q=-0.0 size=N/A time=00:12:34.17 bitrate=N/A speed= 7.9x    frame=18186 fps=189 q=-0.0 size=N/A time=00:12:38.50 bitrate=N/A speed= 7.9x    frame=18293 fps=190 q=-0.0 size=N/A time=00:12:42.97 bitrate=N/A speed=7.91x    frame=18395 fps=190 q=-0.0 size=N/A time=00:12:47.22 bitrate=N/A speed=7.91x    frame=18494 fps=190 q=-0.0 size=N/A time=00:12:51.35 bitrate=N/A speed=7.91x    frame=18591 fps=190 q=-0.0 size=N/A time=00:12:55.39 bitrate=N/A speed=7.91x    frame=18691 fps=190 q=-0.0 size=N/A time=00:12:59.57 bitrate=N/A speed=7.91x    frame=18779 fps=190 q=-0.0 size=N/A time=00:13:03.24 bitrate=N/A speed=7.91x    frame=18878 fps=190 q=-0.0 size=N/A time=00:13:07.36 bitrate=N/A speed= 7.9x    frame=18968 fps=189 q=-0.0 size=N/A time=00:13:11.12 bitrate=N/A speed= 7.9x    frame=19066 fps=189 q=-0.0 size=N/A time=00:13:15.21 bitrate=N/A speed= 7.9x    frame=19151 fps=189 q=-0.0 size=N/A time=00:13:18.75 bitrate=N/A speed= 7.9x    frame=19246 fps=189 q=-0.0 size=N/A time=00:13:22.71 bitrate=N/A speed= 7.9x    frame=19354 fps=189 q=-0.0 size=N/A time=00:13:27.22 bitrate=N/A speed= 7.9x    frame=19455 fps=189 q=-0.0 size=N/A time=00:13:31.43 bitrate=N/A speed= 7.9x    frame=19554 fps=189 q=-0.0 size=N/A time=00:13:35.56 bitrate=N/A speed= 7.9x    frame=19653 fps=189 q=-0.0 size=N/A time=00:13:39.69 bitrate=N/A speed= 7.9x    frame=19752 fps=189 q=-0.0 size=N/A time=00:13:43.82 bitrate=N/A speed= 7.9x    frame=19856 fps=190 q=-0.0 size=N/A time=00:13:48.16 bitrate=N/A speed= 7.9x    frame=19954 fps=190 q=-0.0 size=N/A time=00:13:52.24 bitrate=N/A speed=7.91x    frame=20050 fps=190 q=-0.0 size=N/A time=00:13:56.25 bitrate=N/A speed= 7.9x    frame=20144 fps=189 q=-0.0 size=N/A time=00:14:00.17 bitrate=N/A speed= 7.9x    frame=20256 fps=190 q=-0.0 size=N/A time=00:14:04.84 bitrate=N/A speed=7.91x    frame=20354 fps=190 q=-0.0 size=N/A time=00:14:08.93 bitrate=N/A speed=7.91x    frame=20453 fps=190 q=-0.0 size=N/A time=00:14:13.06 bitrate=N/A speed=7.91x    frame=20548 fps=190 q=-0.0 size=N/A time=00:14:17.02 bitrate=N/A speed=7.91x    frame=20642 fps=190 q=-0.0 size=N/A time=00:14:20.94 bitrate=N/A speed=7.91x    frame=20734 fps=190 q=-0.0 size=N/A time=00:14:24.78 bitrate=N/A speed= 7.9x    frame=20828 fps=189 q=-0.0 size=N/A time=00:14:28.70 bitrate=N/A speed= 7.9x    frame=20920 fps=189 q=-0.0 size=N/A time=00:14:32.53 bitrate=N/A speed= 7.9x    frame=21015 fps=189 q=-0.0 size=N/A time=00:14:36.50 bitrate=N/A speed= 7.9x    frame=21110 fps=189 q=-0.0 size=N/A time=00:14:40.46 bitrate=N/A speed= 7.9x    frame=21203 fps=189 q=-0.0 size=N/A time=00:14:44.34 bitrate=N/A speed= 7.9x    frame=21299 fps=189 q=-0.0 size=N/A time=00:14:48.34 bitrate=N/A speed= 7.9x    frame=21396 fps=189 q=-0.0 size=N/A time=00:14:52.39 bitrate=N/A speed= 7.9x    frame=21487 fps=189 q=-0.0 size=N/A time=00:14:56.18 bitrate=N/A speed=7.89x    frame=21587 fps=189 q=-0.0 size=N/A time=00:15:00.35 bitrate=N/A speed=7.89x    frame=21692 fps=189 q=-0.0 size=N/A time=00:15:04.73 bitrate=N/A speed= 7.9x    frame=21792 fps=189 q=-0.0 size=N/A time=00:15:08.90 bitrate=N/A speed= 7.9x    frame=21893 fps=189 q=-0.0 size=N/A time=00:15:13.12 bitrate=N/A speed= 7.9x    frame=21990 fps=189 q=-0.0 size=N/A time=00:15:17.16 bitrate=N/A speed= 7.9x    frame=22093 fps=189 q=-0.0 size=N/A time=00:15:21.46 bitrate=N/A speed= 7.9x    frame=22181 fps=189 q=-0.0 size=N/A time=00:15:25.13 bitrate=N/A speed= 7.9x    frame=22289 fps=189 q=-0.0 size=N/A time=00:15:29.63 bitrate=N/A speed= 7.9x    frame=22385 fps=189 q=-0.0 size=N/A time=00:15:33.64 bitrate=N/A speed= 7.9x    frame=22483 fps=189 q=-0.0 size=N/A time=00:15:37.72 bitrate=N/A speed= 7.9x    frame=22575 fps=189 q=-0.0 size=N/A time=00:15:41.56 bitrate=N/A speed= 7.9x    frame=22663 fps=189 q=-0.0 size=N/A time=00:15:45.23 bitrate=N/A speed= 7.9x    frame=22768 fps=189 q=-0.0 size=N/A time=00:15:49.61 bitrate=N/A speed= 7.9x    frame=22864 fps=189 q=-0.0 size=N/A time=00:15:53.61 bitrate=N/A speed= 7.9x    frame=22962 fps=189 q=-0.0 size=N/A time=00:15:57.70 bitrate=N/A speed= 7.9x    frame=23061 fps=189 q=-0.0 size=N/A time=00:16:01.83 bitrate=N/A speed= 7.9x    frame=23164 fps=189 q=-0.0 size=N/A time=00:16:06.13 bitrate=N/A speed= 7.9x    frame=23265 fps=189 q=-0.0 size=N/A time=00:16:10.34 bitrate=N/A speed= 7.9x    frame=23366 fps=189 q=-0.0 size=N/A time=00:16:14.55 bitrate=N/A speed= 7.9x    frame=23464 fps=189 q=-0.0 size=N/A time=00:16:18.64 bitrate=N/A speed= 7.9x    frame=23552 fps=189 q=-0.0 size=N/A time=00:16:22.31 bitrate=N/A speed= 7.9x    frame=23648 fps=189 q=-0.0 size=N/A time=00:16:26.31 bitrate=N/A speed= 7.9x    frame=23751 fps=189 q=-0.0 size=N/A time=00:16:30.61 bitrate=N/A speed= 7.9x    frame=23853 fps=189 q=-0.0 size=N/A time=00:16:34.86 bitrate=N/A speed= 7.9x    frame=23955 fps=189 q=-0.0 size=N/A time=00:16:39.12 bitrate=N/A speed= 7.9x    frame=24051 fps=189 q=-0.0 size=N/A time=00:16:43.12 bitrate=N/A speed= 7.9x    frame=24150 fps=189 q=-0.0 size=N/A time=00:16:47.25 bitrate=N/A speed= 7.9x    frame=24247 fps=189 q=-0.0 size=N/A time=00:16:51.30 bitrate=N/A speed= 7.9x    frame=24338 fps=189 q=-0.0 size=N/A time=00:16:55.09 bitrate=N/A speed= 7.9x    frame=24437 fps=189 q=-0.0 size=N/A time=00:16:59.22 bitrate=N/A speed= 7.9x    frame=24536 fps=189 q=-0.0 size=N/A time=00:17:03.35 bitrate=N/A speed= 7.9x    frame=24632 fps=189 q=-0.0 size=N/A time=00:17:07.35 bitrate=N/A speed= 7.9x    frame=24725 fps=189 q=-0.0 size=N/A time=00:17:11.23 bitrate=N/A speed= 7.9x    frame=24825 fps=189 q=-0.0 size=N/A time=00:17:15.40 bitrate=N/A speed= 7.9x    frame=24935 fps=190 q=-0.0 size=N/A time=00:17:19.99 bitrate=N/A speed= 7.9x    frame=25033 fps=190 q=-0.0 size=N/A time=00:17:24.08 bitrate=N/A speed= 7.9x    frame=25122 fps=189 q=-0.0 size=N/A time=00:17:27.79 bitrate=N/A speed= 7.9x    frame=25221 fps=189 q=-0.0 size=N/A time=00:17:31.92 bitrate=N/A speed= 7.9x    frame=25324 fps=190 q=-0.0 size=N/A time=00:17:36.22 bitrate=N/A speed= 7.9x    frame=25427 fps=190 q=-0.0 size=N/A time=00:17:40.51 bitrate=N/A speed=7.91x    frame=25525 fps=190 q=-0.0 size=N/A time=00:17:44.60 bitrate=N/A speed=7.91x    frame=25610 fps=189 q=-0.0 size=N/A time=00:17:48.15 bitrate=N/A speed= 7.9x    frame=25719 fps=190 q=-0.0 size=N/A time=00:17:52.69 bitrate=N/A speed=7.91x    frame=25816 fps=190 q=-0.0 size=N/A time=00:17:56.74 bitrate=N/A speed= 7.9x    frame=25914 fps=190 q=-0.0 size=N/A time=00:18:00.82 bitrate=N/A speed= 7.9x    frame=26001 fps=189 q=-0.0 size=N/A time=00:18:04.45 bitrate=N/A speed= 7.9x    frame=26096 fps=189 q=-0.0 size=N/A time=00:18:08.42 bitrate=N/A speed= 7.9x    frame=26191 fps=189 q=-0.0 size=N/A time=00:18:12.38 bitrate=N/A speed= 7.9x    frame=26292 fps=189 q=-0.0 size=N/A time=00:18:16.59 bitrate=N/A speed= 7.9x    frame=26385 fps=189 q=-0.0 size=N/A time=00:18:20.47 bitrate=N/A speed= 7.9x    frame=26488 fps=189 q=-0.0 size=N/A time=00:18:24.77 bitrate=N/A speed= 7.9x    frame=26570 fps=189 q=-0.0 size=N/A time=00:18:28.19 bitrate=N/A speed= 7.9x    frame=26677 fps=189 q=-0.0 size=N/A time=00:18:32.65 bitrate=N/A speed= 7.9x    frame=26770 fps=189 q=-0.0 size=N/A time=00:18:36.53 bitrate=N/A speed= 7.9x    frame=26871 fps=189 q=-0.0 size=N/A time=00:18:40.74 bitrate=N/A speed= 7.9x    frame=26969 fps=189 q=-0.0 size=N/A time=00:18:44.83 bitrate=N/A speed= 7.9x    frame=27069 fps=189 q=-0.0 size=N/A time=00:18:49.00 bitrate=N/A speed= 7.9x    frame=27173 fps=189 q=-0.0 size=N/A time=00:18:53.34 bitrate=N/A speed= 7.9x    frame=27275 fps=189 q=-0.0 size=N/A time=00:18:57.59 bitrate=N/A speed= 7.9x    frame=27378 fps=189 q=-0.0 size=N/A time=00:19:01.89 bitrate=N/A speed= 7.9x    frame=27477 fps=189 q=-0.0 size=N/A time=00:19:06.01 bitrate=N/A speed= 7.9x    frame=27576 fps=189 q=-0.0 size=N/A time=00:19:10.14 bitrate=N/A speed= 7.9x    frame=27676 fps=189 q=-0.0 size=N/A time=00:19:14.31 bitrate=N/A speed= 7.9x    frame=27764 fps=189 q=-0.0 size=N/A time=00:19:17.99 bitrate=N/A speed= 7.9x    frame=27857 fps=189 q=-0.0 size=N/A time=00:19:21.86 bitrate=N/A speed= 7.9x    frame=27959 fps=189 q=-0.0 size=N/A time=00:19:26.12 bitrate=N/A speed= 7.9x    frame=28057 fps=189 q=-0.0 size=N/A time=00:19:30.21 bitrate=N/A speed= 7.9x    frame=28148 fps=189 q=-0.0 size=N/A time=00:19:34.00 bitrate=N/A speed= 7.9x    frame=28250 fps=189 q=-0.0 size=N/A time=00:19:38.26 bitrate=N/A speed= 7.9x    frame=28348 fps=189 q=-0.0 size=N/A time=00:19:42.34 bitrate=N/A speed= 7.9x    frame=28448 fps=189 q=-0.0 size=N/A time=00:19:46.51 bitrate=N/A speed= 7.9x    frame=28556 fps=189 q=-0.0 size=N/A time=00:19:51.02 bitrate=N/A speed= 7.9x    frame=28653 fps=189 q=-0.0 size=N/A time=00:19:55.06 bitrate=N/A speed= 7.9x    frame=28750 fps=189 q=-0.0 size=N/A time=00:19:59.11 bitrate=N/A speed= 7.9x    frame=28858 fps=190 q=-0.0 size=N/A time=00:20:03.61 bitrate=N/A speed= 7.9x    frame=28958 fps=190 q=-0.0 size=N/A time=00:20:07.78 bitrate=N/A speed= 7.9x    frame=29056 fps=190 q=-0.0 size=N/A time=00:20:11.87 bitrate=N/A speed= 7.9x    frame=29158 fps=190 q=-0.0 size=N/A time=00:20:16.13 bitrate=N/A speed=7.91x    frame=29258 fps=190 q=-0.0 size=N/A time=00:20:20.30 bitrate=N/A speed=7.91x    frame=29348 fps=190 q=-0.0 size=N/A time=00:20:24.05 bitrate=N/A speed= 7.9x    frame=29445 fps=189 q=-0.0 size=N/A time=00:20:28.10 bitrate=N/A speed= 7.9x    frame=29535 fps=189 q=-0.0 size=N/A time=00:20:31.85 bitrate=N/A speed= 7.9x    frame=29627 fps=189 q=-0.0 size=N/A time=00:20:35.69 bitrate=N/A speed= 7.9x    frame=29720 fps=189 q=-0.0 size=N/A time=00:20:39.57 bitrate=N/A speed= 7.9x    frame=29808 fps=189 q=-0.0 size=N/A time=00:20:43.24 bitrate=N/A speed= 7.9x    frame=29912 fps=189 q=-0.0 size=N/A time=00:20:47.57 bitrate=N/A speed= 7.9x    frame=29996 fps=189 q=-0.0 size=N/A time=00:20:51.08 bitrate=N/A speed=7.89x    frame=30091 fps=189 q=-0.0 size=N/A time=00:20:55.04 bitrate=N/A speed=7.89x    frame=30197 fps=189 q=-0.0 size=N/A time=00:20:59.46 bitrate=N/A speed= 7.9x    frame=30287 fps=189 q=-0.0 size=N/A time=00:21:03.22 bitrate=N/A speed=7.89x    frame=30384 fps=189 q=-0.0 size=N/A time=00:21:07.26 bitrate=N/A speed=7.89x    frame=30484 fps=189 q=-0.0 size=N/A time=00:21:11.43 bitrate=N/A speed=7.89x    frame=30581 fps=189 q=-0.0 size=N/A time=00:21:15.48 bitrate=N/A speed=7.89x    frame=30676 fps=189 q=-0.0 size=N/A time=00:21:19.44 bitrate=N/A speed=7.89x    frame=30777 fps=189 q=-0.0 size=N/A time=00:21:23.65 bitrate=N/A speed=7.89x    frame=30871 fps=189 q=-0.0 size=N/A time=00:21:27.57 bitrate=N/A speed=7.89x    frame=30970 fps=189 q=-0.0 size=N/A time=00:21:31.70 bitrate=N/A speed=7.89x    frame=31057 fps=189 q=-0.0 size=N/A time=00:21:35.33 bitrate=N/A speed=7.89x    frame=31160 fps=189 q=-0.0 size=N/A time=00:21:39.63 bitrate=N/A speed=7.89x    frame=31257 fps=189 q=-0.0 size=N/A time=00:21:43.67 bitrate=N/A speed=7.89x    frame=31354 fps=189 q=-0.0 size=N/A time=00:21:47.72 bitrate=N/A speed=7.89x    frame=31452 fps=189 q=-0.0 size=N/A time=00:21:51.81 bitrate=N/A speed=7.89x    frame=31548 fps=189 q=-0.0 size=N/A time=00:21:55.81 bitrate=N/A speed=7.89x    frame=31639 fps=189 q=-0.0 size=N/A time=00:21:59.60 bitrate=N/A speed=7.89x    frame=31741 fps=189 q=-0.0 size=N/A time=00:22:03.86 bitrate=N/A speed=7.89x    frame=31842 fps=189 q=-0.0 size=N/A time=00:22:08.07 bitrate=N/A speed=7.89x    frame=31938 fps=189 q=-0.0 size=N/A time=00:22:12.08 bitrate=N/A speed=7.89x    frame=32034 fps=189 q=-0.0 size=N/A time=00:22:16.08 bitrate=N/A speed=7.89x    frame=32133 fps=189 q=-0.0 size=N/A time=00:22:20.21 bitrate=N/A speed=7.89x    frame=32232 fps=189 q=-0.0 size=N/A time=00:22:24.34 bitrate=N/A speed=7.89x    frame=32336 fps=189 q=-0.0 size=N/A time=00:22:28.68 bitrate=N/A speed=7.89x    frame=32432 fps=189 q=-0.0 size=N/A time=00:22:32.68 bitrate=N/A speed=7.89x    frame=32532 fps=189 q=-0.0 size=N/A time=00:22:36.85 bitrate=N/A speed=7.89x    frame=32628 fps=189 q=-0.0 size=N/A time=00:22:40.85 bitrate=N/A speed=7.89x    frame=32727 fps=189 q=-0.0 size=N/A time=00:22:44.98 bitrate=N/A speed=7.89x    frame=32822 fps=189 q=-0.0 size=N/A time=00:22:48.95 bitrate=N/A speed=7.89x    frame=32919 fps=189 q=-0.0 size=N/A time=00:22:52.99 bitrate=N/A speed=7.89x    frame=33017 fps=189 q=-0.0 size=N/A time=00:22:57.08 bitrate=N/A speed=7.89x    frame=33113 fps=189 q=-0.0 size=N/A time=00:23:01.08 bitrate=N/A speed=7.89x    [Parsed_ssim_10 @ 000001fd711c5140] SSIM Y:0.994724 (22.776695) U:0.993822 (22.091654) V:0.993499 (21.869869) All:0.994369 (22.494331)
[out#0/null @ 000001fd64f64ec0] video:14248KiB audio:259536KiB subtitle:0KiB other streams:0KiB global headers:0KiB muxing overhead: unknown
frame=33160 fps=189 q=-0.0 Lsize=N/A time=00:23:03.04 bitrate=N/A speed=7.89x    
